<svg xmlns="http://www.w3.org/2000/svg" viewBox="0 0 64 64" role="img" aria-label="Boy and a Scanner">
  <defs>
    <linearGradient id="g" x1="10" y1="12" x2="54" y2="52" gradientUnits="userSpaceOnUse">
      <stop offset="0" stop-color="#36a2ff"/>
      <stop offset="1" stop-color="#8af0ff"/>
    </linearGradient>
  </defs>
  <rect x="2" y="2" width="60" height="60" rx="14" fill="#0b0e14"/>
  <path d="M18 26h28a6 6 0 0 1 6 6v10a6 6 0 0 1-6 6H18a6 6 0 0 1-6-6V32a6 6 0 0 1 6-6Z" fill="none" stroke="url(#g)" stroke-width="3"/>
  <path d="M22 26v-4c0-4 3-7 7-7h6c4 0 7 3 7 7v4" fill="none" stroke="url(#g)" stroke-width="3" stroke-linecap="round"/>
  <circle cx="24" cy="37" r="5" fill="none" stroke="url(#g)" stroke-width="3"/>
  <path d="M36 34h10M36 40h10" stroke="url(#g)" stroke-width="3" stroke-linecap="round"/>
</svg>
